<svg xmlns="http://www.w3.org/2000/svg" width="25" height="25" viewBox="0 0 25 25" fill="none">
  <path d="M13.4369 12.4963L20.4719 5.4544C20.596 5.32968 20.6656 5.16085 20.6655 4.9849C20.6654 4.80894 20.5955 4.64021 20.4712 4.51565C20.2225 4.26815 19.7844 4.2669 19.5331 4.5169L12.5 11.5588L5.46437 4.51502C5.21437 4.26815 4.77624 4.2694 4.52749 4.51627C4.46575 4.57777 4.41687 4.65095 4.38371 4.73154C4.35056 4.81212 4.33378 4.89851 4.33437 4.98565C4.33437 5.16315 4.40312 5.3294 4.52749 5.45252L11.5625 12.4956L4.52812 19.5394C4.40398 19.6643 4.33446 19.8334 4.33482 20.0095C4.33517 20.1856 4.40536 20.3544 4.52999 20.4788C4.65062 20.5981 4.82124 20.6669 4.99749 20.6669H5.00124C5.17812 20.6663 5.34874 20.5969 5.46687 20.4763L12.5 13.4344L19.5356 20.4781C19.66 20.6019 19.8262 20.6707 20.0025 20.6707C20.0896 20.6709 20.176 20.6539 20.2565 20.6207C20.3371 20.5874 20.4103 20.5386 20.4719 20.477C20.5336 20.4153 20.5824 20.3421 20.6156 20.2616C20.6489 20.181 20.6659 20.0947 20.6656 20.0075C20.6656 19.8307 20.5969 19.6638 20.4719 19.5406L13.4369 12.4963Z" fill="#FF0404"/>
</svg>